<?xml version="1.0" encoding="UTF-8"?>
<svg id="Layer_2" data-name="Layer 2" xmlns="http://www.w3.org/2000/svg" viewBox="0 0 1232 447.74">
  <defs>
    <style>
      .cls-1 {
        fill: var(--logo-color-1, #efc100);
      }

      .cls-2 {
        fill: var(--logo-color-2, #17ad53);
      }

      .cls-3 {
        fill: var(--logo-color-3, #004fed);
      }

      .cls-4 {
        fill: var(--logo-color-4, #ffffff);
      }
    </style>
  </defs>
  <g id="Layer_1-2" data-name="Layer 1">
    <g>
      <g>
        <g>
          <path class="cls-4" d="m123.82,447.74c-24.85,0-46.54-5.16-65.07-15.48-18.54-10.32-32.91-24.95-43.13-43.88C5.4,369.44.29,347.35.29,322.1s5.11-47.89,15.33-66.73c10.22-18.83,24.6-33.41,43.13-43.73,18.53-10.32,40.22-15.48,65.07-15.48,20.03,0,37.82,3.46,53.35,10.37,15.53,6.91,28.25,16.78,38.17,29.61,9.92,12.83,16.18,28.15,18.78,45.99h-52.9c-2.21-13.02-8.42-23.09-18.63-30.21-10.22-7.11-23.14-10.67-38.77-10.67-22.44,0-40.18,7.11-53.2,21.34-13.03,14.23-19.54,34.07-19.54,59.51s6.51,45.04,19.54,59.36c13.02,14.33,30.76,21.49,53.2,21.49,15.63,0,28.55-3.61,38.77-10.82,10.22-7.22,16.43-17.33,18.63-30.36h52.9c-2.61,17.84-8.87,33.21-18.78,46.14-9.92,12.93-22.65,22.8-38.17,29.61-15.53,6.81-33.32,10.22-53.35,10.22Z"/>
          <path class="cls-4" d="m540.4,443.23v-243.46h95.88c26.45,0,49.29,4.91,68.53,14.73,19.24,9.82,34.06,23.85,44.48,42.08,10.42,18.24,15.63,39.88,15.63,64.92s-5.26,46.39-15.78,64.62c-10.52,18.23-25.4,32.31-44.64,42.23-19.24,9.92-41.98,14.88-68.23,14.88h-95.88Zm50.8-43.28h45.09c25.25,0,44.43-7.16,57.56-21.49,13.12-14.32,19.69-33.31,19.69-56.96s-6.57-42.88-19.69-57.11c-13.13-14.22-32.31-21.34-57.56-21.34h-45.09v156.9Z"/>
          <path class="cls-4" d="m981.94,443.23h-177.64v-243.46h177.64v44.49h-126.84v51.1h116.92v43.28h-116.92v60.11h126.84v44.49Z"/>
          <path class="cls-4" d="m1022.51,443.23v-243.46h125.94c26.05,0,46.44,5.86,61.17,17.58,14.73,11.72,22.09,27.91,22.09,48.54,0,13.03-3.06,24.15-9.17,33.36-6.11,9.22-14.68,15.73-25.7,19.54v1.5c11.02,0,19.58,2.96,25.7,8.87,6.11,5.91,9.17,14.78,9.17,26.6v87.47h-51.1v-92.58h-107.3v92.58h-50.8Zm50.8-136.76h71.84c11.62,0,20.59-2.71,26.9-8.12,6.31-5.41,9.47-13.12,9.47-23.14s-3.16-17.73-9.47-23.14c-6.31-5.41-15.28-8.12-26.9-8.12h-71.84v62.52Z"/>
        </g>
        <g>
          <path class="cls-1" d="m369.28,443.29c-17.23,0-30.87-1.63-40.91-4.89s-17.23-8.28-21.58-15.06c-4.35-6.78-6.52-15.43-6.52-25.97v-34.63c0-9.87-2.55-16.81-7.65-20.83-5.11-4.02-12.51-6.11-22.21-6.27v-33.13c10.54-.16,18.15-2.3,22.84-6.4,4.68-4.1,7.03-11,7.03-20.71v-34.63c0-10.71,2.17-19.41,6.52-26.1,4.35-6.69,11.54-11.67,21.58-14.93,10.04-3.26,23.67-4.89,40.91-4.89v32.88c-12.38,0-20.67,1.59-24.85,4.77-4.18,3.18-6.27,9.03-6.27,17.57v33.63c0,10.54-2.34,18.57-7.03,24.09-4.69,5.52-12.22,9.12-22.59,10.79v1c10.37,1.67,17.9,5.23,22.59,10.67,4.68,5.44,7.03,13.51,7.03,24.22v33.88c0,8.53,2.09,14.34,6.27,17.44,4.18,3.09,12.46,4.64,24.85,4.64v32.88Z"/>
          <path class="cls-1" d="m384.33,443.29v-32.88c12.38,0,20.66-1.59,24.85-4.77,4.18-3.18,6.27-9.03,6.27-17.57v-33.63c0-10.54,2.38-18.57,7.15-24.09s12.25-9.12,22.46-10.79v-1c-10.21-1.67-17.69-5.27-22.46-10.79-4.77-5.52-7.15-13.55-7.15-24.09v-33.88c0-8.53-2.05-14.34-6.15-17.44-4.1-3.09-12.42-4.64-24.97-4.64v-32.88c17.23,0,30.87,1.63,40.91,4.89,10.04,3.26,17.23,8.24,21.58,14.93,4.35,6.69,6.52,15.39,6.52,26.1v34.63c0,9.71,2.38,16.61,7.15,20.71,4.77,4.1,12.34,6.23,22.71,6.4v33.13c-10.38.17-17.94,2.26-22.71,6.27-4.77,4.01-7.15,10.96-7.15,20.83v34.63c0,10.54-2.18,19.2-6.52,25.97-4.35,6.78-11.54,11.8-21.58,15.06-10.04,3.26-23.68,4.89-40.91,4.89Z"/>
        </g>
      </g>
      <path class="cls-4" d="m73.12,148.91c-14.71,0-27.55-3.05-38.52-9.16-10.97-6.11-19.48-14.77-25.53-25.98C3.02,102.57,0,89.49,0,74.55s3.02-28.35,9.07-39.5c6.05-11.15,14.56-19.78,25.53-25.89C45.57,3.05,58.41,0,73.12,0c11.86,0,22.39,2.05,31.58,6.14,9.19,4.09,16.72,9.94,22.6,17.53,5.87,7.59,9.58,16.67,11.12,27.22h-31.31c-1.31-7.71-4.98-13.67-11.03-17.88-6.05-4.21-13.7-6.32-22.95-6.32-13.28,0-23.78,4.21-31.49,12.63-7.71,8.42-11.56,20.17-11.56,35.23s3.85,26.66,11.56,35.14c7.71,8.48,18.21,12.72,31.49,12.72,9.25,0,16.9-2.13,22.95-6.4,6.05-4.27,9.72-10.26,11.03-17.97h31.31c-1.54,10.56-5.25,19.66-11.12,27.31-5.87,7.65-13.4,13.49-22.6,17.52-9.19,4.03-19.72,6.05-31.58,6.05Z"/>
      <path class="cls-4" d="m156.03,146.25V2.13h74.55c15.42,0,27.49,3.47,36.21,10.41,8.72,6.94,13.08,16.52,13.08,28.73,0,7.71-1.81,14.29-5.43,19.75-3.62,5.46-8.69,9.31-15.21,11.56v.89c6.52,0,11.59,1.75,15.21,5.25,3.62,3.5,5.43,8.75,5.43,15.74v51.77h-30.25v-54.8h-63.52v54.8h-30.07Zm30.07-80.95h42.52c6.88,0,12.19-1.6,15.92-4.8,3.74-3.2,5.6-7.77,5.6-13.7s-1.87-10.5-5.6-13.7c-3.74-3.2-9.05-4.8-15.92-4.8h-42.52v37.01Z"/>
      <path class="cls-4" d="m413.11,146.25h-105.15V2.13h105.15v26.33h-75.08v30.25h69.21v25.62h-69.21v35.58h75.08v26.33Z"/>
      <path class="cls-4" d="m423.07,146.25L484.1,2.13h30.96l60.31,144.11h-30.96l-14.77-35.23h-61.56l-15.12,35.23h-29.89Zm54.44-60.49h43.94l-21.53-51.95h-.89l-21.53,51.95Z"/>
      <path class="cls-4" d="m699.33,146.25V2.13h30.25v144.11h-30.25Z"/>
      <path class="cls-4" d="m805.19,146.25L747.72,2.13h33.09l42.17,109.95h.89L865.5,2.13h32.38l-57.47,144.11h-35.23Z"/>
      <path class="cls-4" d="m916.03,146.25V2.13h30.25v144.11h-30.25Z"/>
      <path class="cls-4" d="m1148.91,146.25v-53.37l-52.84-90.74h33.98l34.16,60.14h.71l34.34-60.14h32.74l-52.84,90.38v53.73h-30.25Z"/>
      <g>
        <polygon class="cls-4" points="555.94 2.13 555.94 28.47 598.18 28.47 613.38 2.13 555.94 2.13"/>
        <rect class="cls-4" x="602.73" y="32.65" width="29.53" height="113.6"/>
        <polygon class="cls-4" points="679.05 2.13 621.61 2.13 636.81 28.47 679.05 28.47 679.05 2.13"/>
      </g>
      <polygon class="cls-3" points="617.5 3.07 602.75 28.61 632.24 28.61 617.5 3.07"/>
      <rect class="cls-4" x="1013.35" y="32.65" width="29.53" height="113.6"/>
      <polygon class="cls-4" points="966.56 28.61 966.56 2.28 1008.79 2.28 1024 28.61 966.56 28.61"/>
      <polygon class="cls-4" points="1089.67 28.61 1032.23 28.61 1047.43 2.28 1089.67 2.28 1089.67 28.61"/>
      <polygon class="cls-2" points="1028.11 27.68 1013.37 2.13 1042.86 2.13 1028.11 27.68"/>
    </g>
  </g>
</svg>